<svg width="131" height="70" viewBox="0 0 131 70" fill="none" xmlns="http://www.w3.org/2000/svg">
<circle cx="67" cy="26.0049" r="8" fill="#FFE500" stroke="#FFE500" stroke-width="4"/>
<path d="M15.6295 45.376L0 69.0049C2.3033 69.0049 13.0246 57.3617 18.0973 51.5401C18.2344 52.8414 19.249 56.2659 22.2104 59.5534C25.1717 62.8409 29.7509 60.9232 31.6703 59.5534C33.4526 58.1836 37.7987 54.2112 40.9246 49.2799C44.0505 44.3487 50.5903 36.2669 53.4694 32.8424C54.7718 31.2672 57.9526 29.2673 60.2559 33.8698C62.5592 38.4723 71.0869 48.6635 75.0628 53.1838C78.4903 56.9508 86.2502 64.3203 89.8697 63.6628C94.394 62.8409 93.7771 62.2245 95.4223 60.9917C96.7385 60.0054 97.3417 56.8823 97.4788 55.444C97.3143 48.2115 96.0392 40.2393 96.6562 36.9518C106.116 40.2393 128.943 59.3479 131 59.3479C125.653 52.1565 113.026 36.7874 105.294 32.8424C95.6279 27.9112 94.394 28.9385 92.5432 29.144C91.0625 29.3084 89.5955 31.6781 89.0471 32.8424C85.7567 43.3213 89.0471 52.362 88.0188 51.5401C86.3736 50.2251 81.3009 43.4583 78.9702 40.2393C75.8168 35.719 68.9755 26.062 66.8367 23.5963C64.1633 20.5143 60.6672 19.6924 54.9089 20.1034C50.3024 20.4321 45.7232 25.5825 44.0094 28.1166C39.8964 32.4315 32.6986 47.2252 26.529 53.1838L24.2669 47.8417C23.787 45.65 22.2515 41.431 19.9482 42.0885C17.6449 42.746 16.1094 44.5542 15.6295 45.376Z" fill="white"/>
<path d="M51.8192 5.43365C51.8192 5.43365 54.1833 5.65509 57.9533 14.5876C60.8623 21.48 49.1904 5.38961 51.8192 5.43365Z" fill="#FFE500" stroke="#FFE500"/>
<path d="M66.5489 1.20841C66.5489 1.20841 68.4682 2.60637 67.1464 12.2113C66.1266 19.6227 64.3114 -0.172272 66.5489 1.20841Z" fill="#FFE500" stroke="#FFE500"/>
<path d="M81.741 4.63173C81.741 4.63173 82.8313 6.74105 77.3492 14.7379C73.1191 20.9083 80.3585 2.39541 81.741 4.63173Z" fill="#FFE500" stroke="#FFE500"/>
<path d="M91.6884 25.1814C91.6884 25.1814 90.4434 27.2033 80.7649 26.6301C73.2968 26.1878 92.8915 22.8436 91.6884 25.1814Z" fill="#FFE500" stroke="#FFE500"/>
</svg>
